<svg id="Layer_3" data-name="Layer 3" xmlns="http://www.w3.org/2000/svg" viewBox="0 0 37.73 42.79" height="100%" width="100%">
  <defs>
    <style>
      .cls-1 {
        fill: #757575;
      }
    </style>
  </defs>
  <title>nhl-shield-logo-flat</title>
  <path
    class="cls-1"
    d="M5,23.9,25.65,8.4a7.26,7.26,0,0,1-1.16.1,9.59,9.59,0,0,1-5.62-1.93A9.57,9.57,0,0,1,13.25,8.5,8.42,8.42,0,0,1,9.17,7.38a8.23,8.23,0,0,1-3,3A16.66,16.66,0,0,1,7,15.53C7,19.63,5.59,21.57,5,23.9Zm6.64,10.57.28.08c2.5.63,5.56,1,6.48,1.49a4,4,0,0,1,.47.43,3.8,3.8,0,0,1,.46-.42c.93-.52,4-.85,6.48-1.49,3.46-.88,7.19-4,7.19-8.63,0-2.33-1-3.86-1.69-6.2ZM2.45,15.53C2.45,20,.19,21,.19,25.92.19,33,5.69,37.68,10.8,39c2.58.63,3.36.67,5.69,1.24l2.38,2.56,2.37-2.56c2.34-.58,3.11-.62,5.69-1.24C32,37.68,37.54,33,37.54,25.92c0-4.94-2.26-5.94-2.26-10.39a11.76,11.76,0,0,1,1-4.71l1.45-3.28-3.41-1A3.59,3.59,0,0,1,32,4.14L30.54,0,27.18,2.79A4.25,4.25,0,0,1,24.5,3.91a5.16,5.16,0,0,1-3.45-1.48L18.87.29,16.7,2.44a5.23,5.23,0,0,1-3.45,1.48A4.15,4.15,0,0,1,10.57,2.8L7.19,0,5.69,4.13a3.57,3.57,0,0,1-2.27,2.4L0,7.53l1.45,3.28A11.84,11.84,0,0,1,2.45,15.53ZM3.57,7.06A4.05,4.05,0,0,0,6.21,4.32L7.45.93,10.2,3.21a4.83,4.83,0,0,0,3,1.24,5.74,5.74,0,0,0,3.85-1.64l1.77-1.76,1.77,1.76a5.74,5.74,0,0,0,3.85,1.64,4.81,4.81,0,0,0,3-1.24L30.27.93l1.24,3.39a4.05,4.05,0,0,0,2.64,2.74l2.8.83L35.76,10.6a12.24,12.24,0,0,0-1,4.93,12.45,12.45,0,0,0,1.2,5.26A12.39,12.39,0,0,1,37,25.92c0,6.5-4.83,11.16-10.18,12.54-2.64.67-3.88.74-5.85,1.29L18.87,42l-2.08-2.24c-2-.55-3.2-.62-5.86-1.28a13.7,13.7,0,0,1-9.47-8.41,12.36,12.36,0,0,1-.7-4.14C.76,21.07,3,20.15,3,15.53A12.24,12.24,0,0,0,2,10.6L.78,7.9ZM9.81,33.74,30.9,17.9a15.6,15.6,0,0,1-.17-2.39,16.85,16.85,0,0,1,.86-5.18A7.86,7.86,0,0,1,29,8L4.74,26.2A8.88,8.88,0,0,0,9.81,33.74ZM26,11.83v6.06l3.21-2.41a10.18,10.18,0,0,0,0,2.07l-5,3.78V14.8a.9.9,0,0,0-.88-1Zm-7.07,5.31v3l2-1.5v-3l1.73-1.31v8.14l-1.73,1.31v-3l-2,1.5v3l-1.82,1.37V20.12a.91.91,0,0,0-.88-.95Zm-7.46,5.6,2.26,3.47V21l1.77-1.33v8.14l-1.88,1.41-2-3.09v4.62L9.83,32.12V25.59A.9.9,0,0,0,9,24.64ZM4.22,16.86C3.85,20.55,2,22,2,25.91A11.84,11.84,0,0,0,11.26,37.2c2.83.72,4.8.9,6.24,1.42.18.17,1.39,1.47,1.39,1.47s1.2-1.3,1.39-1.47c1.44-.52,3.4-.7,6.23-1.42a11.82,11.82,0,0,0,9.24-11.28c0-4.33-2.26-5.67-2.26-10.4a15.43,15.43,0,0,1,1.77-6.81s-4.33-.38-5.5-5.63c0,0-2.6,2.68-5.22,2.68a7.87,7.87,0,0,1-5.62-2.88A7.87,7.87,0,0,1,13.3,5.76c-2.63,0-5.22-2.67-5.22-2.67-1.17,5.26-5.5,5.64-5.5,5.64a15.43,15.43,0,0,1,1.77,6.81C4.28,16,4.26,16.45,4.22,16.86Zm.06-7.32A6.45,6.45,0,0,0,8.59,5.22a7.49,7.49,0,0,0,4.64,1.83,8.42,8.42,0,0,0,5.63-2.37,8.38,8.38,0,0,0,5.62,2.37,7.47,7.47,0,0,0,4.65-1.83,6.45,6.45,0,0,0,4.31,4.32,15,15,0,0,0-1.27,6c0,5,2.26,6.46,2.26,10.4,0,5.52-4.3,9-8.28,10-3.15.8-5.21.89-6.6,1.56,0,0-.51.46-.7.67-.19-.21-.7-.67-.7-.67-1.38-.66-3.45-.76-6.6-1.56-4-1-8.28-4.52-8.28-10,0-3.94,2.26-5.39,2.26-10.4A14.63,14.63,0,0,0,4.28,9.54Z"
    transform="translate(0)"/>
</svg>
